<mxfile host="app.diagrams.net" agent="Mozilla/5.0 (X11; Ubuntu; Linux x86_64; rv:132.0) Gecko/20100101 Firefox/132.0" version="24.8.3">
  <diagram name="Page-1" id="soK__QBpIP7JtJ_CeSAq">
    <mxGraphModel dx="819" dy="443" grid="1" gridSize="10" guides="1" tooltips="1" connect="1" arrows="1" fold="1" page="1" pageScale="1" pageWidth="850" pageHeight="1100" math="0" shadow="0">
      <root>
        <mxCell id="0" />
        <mxCell id="1" parent="0" />
        <mxCell id="f2T5fNYOGTrKH9SguXQt-13" style="edgeStyle=orthogonalEdgeStyle;rounded=0;orthogonalLoop=1;jettySize=auto;html=1;exitX=1;exitY=0.5;exitDx=0;exitDy=0;entryX=0;entryY=0.5;entryDx=0;entryDy=0;" edge="1" parent="1" source="f2T5fNYOGTrKH9SguXQt-1" target="f2T5fNYOGTrKH9SguXQt-4">
          <mxGeometry relative="1" as="geometry" />
        </mxCell>
        <mxCell id="f2T5fNYOGTrKH9SguXQt-1" value="&lt;div&gt;Zablokowany&lt;/div&gt;" style="ellipse;whiteSpace=wrap;html=1;fillColor=none;" vertex="1" parent="1">
          <mxGeometry x="230" y="350" width="120" height="80" as="geometry" />
        </mxCell>
        <mxCell id="f2T5fNYOGTrKH9SguXQt-6" style="edgeStyle=orthogonalEdgeStyle;rounded=0;orthogonalLoop=1;jettySize=auto;html=1;exitX=1;exitY=0.5;exitDx=0;exitDy=0;entryX=0.5;entryY=0;entryDx=0;entryDy=0;curved=1;" edge="1" parent="1" source="f2T5fNYOGTrKH9SguXQt-2" target="f2T5fNYOGTrKH9SguXQt-4">
          <mxGeometry relative="1" as="geometry" />
        </mxCell>
        <mxCell id="f2T5fNYOGTrKH9SguXQt-2" value="Pasywny" style="ellipse;whiteSpace=wrap;html=1;fillColor=none;" vertex="1" parent="1">
          <mxGeometry x="425" y="270" width="120" height="80" as="geometry" />
        </mxCell>
        <mxCell id="f2T5fNYOGTrKH9SguXQt-12" style="edgeStyle=orthogonalEdgeStyle;rounded=0;orthogonalLoop=1;jettySize=auto;html=1;exitX=0.5;exitY=1;exitDx=0;exitDy=0;entryX=1;entryY=0.5;entryDx=0;entryDy=0;startArrow=classic;startFill=1;curved=1;" edge="1" parent="1" source="f2T5fNYOGTrKH9SguXQt-4" target="f2T5fNYOGTrKH9SguXQt-5">
          <mxGeometry relative="1" as="geometry" />
        </mxCell>
        <mxCell id="f2T5fNYOGTrKH9SguXQt-4" value="W kolejce na wykonywanie" style="ellipse;whiteSpace=wrap;html=1;fillColor=none;" vertex="1" parent="1">
          <mxGeometry x="620" y="350" width="120" height="80" as="geometry" />
        </mxCell>
        <mxCell id="f2T5fNYOGTrKH9SguXQt-10" style="edgeStyle=orthogonalEdgeStyle;rounded=0;orthogonalLoop=1;jettySize=auto;html=1;exitX=0.5;exitY=0;exitDx=0;exitDy=0;entryX=0.5;entryY=1;entryDx=0;entryDy=0;" edge="1" parent="1" source="f2T5fNYOGTrKH9SguXQt-5" target="f2T5fNYOGTrKH9SguXQt-2">
          <mxGeometry relative="1" as="geometry" />
        </mxCell>
        <mxCell id="f2T5fNYOGTrKH9SguXQt-14" style="edgeStyle=orthogonalEdgeStyle;rounded=0;orthogonalLoop=1;jettySize=auto;html=1;exitX=0;exitY=0.5;exitDx=0;exitDy=0;entryX=0.5;entryY=1;entryDx=0;entryDy=0;strokeColor=default;curved=1;startArrow=none;startFill=0;" edge="1" parent="1" source="f2T5fNYOGTrKH9SguXQt-5" target="f2T5fNYOGTrKH9SguXQt-1">
          <mxGeometry relative="1" as="geometry" />
        </mxCell>
        <mxCell id="f2T5fNYOGTrKH9SguXQt-5" value="Wykonywany" style="ellipse;whiteSpace=wrap;html=1;fillColor=none;" vertex="1" parent="1">
          <mxGeometry x="425" y="430" width="120" height="80" as="geometry" />
        </mxCell>
      </root>
    </mxGraphModel>
  </diagram>
</mxfile>
